<?xml version="1.0" encoding="UTF-8" standalone="no"?>
<svg
   xmlns:dc="http://purl.org/dc/elements/1.1/"
   xmlns:cc="http://creativecommons.org/ns#"
   xmlns:rdf="http://www.w3.org/1999/02/22-rdf-syntax-ns#"
   xmlns:svg="http://www.w3.org/2000/svg"
   xmlns="http://www.w3.org/2000/svg"
   xmlns:sodipodi="http://sodipodi.sourceforge.net/DTD/sodipodi-0.dtd"
   xmlns:inkscape="http://www.inkscape.org/namespaces/inkscape"
   inkscape:version="1.0 (4035a4fb49, 2020-05-01)"
   sodipodi:docname="file.svg"
   id="svg4"
   viewBox="0 0 24 24"
   height="24"
   width="24"
   version="1.1">
  <metadata
     id="metadata10">
    <rdf:RDF>
      <cc:Work
         rdf:about="">
        <dc:format>image/svg+xml</dc:format>
        <dc:type
           rdf:resource="http://purl.org/dc/dcmitype/StillImage" />
      </cc:Work>
    </rdf:RDF>
  </metadata>
  <defs
     id="defs8" />
  <sodipodi:namedview
     inkscape:current-layer="svg4"
     inkscape:window-maximized="1"
     inkscape:window-y="-9"
     inkscape:window-x="-9"
     inkscape:cy="12.814454"
     inkscape:cx="9.6285026"
     inkscape:zoom="24.45411"
     showgrid="false"
     id="namedview6"
     inkscape:window-height="1001"
     inkscape:window-width="1920"
     inkscape:pageshadow="2"
     inkscape:pageopacity="0"
     guidetolerance="10"
     gridtolerance="10"
     objecttolerance="10"
     borderopacity="1"
     bordercolor="#666666"
     pagecolor="#ffffff" />
  <path
     style="fill:#ffffff;fill-opacity:1"
     id="path2"
     d="M14,2L20,8V20A2,2 0 0,1 18,22H6A2,2 0 0,1 4,20V4A2,2 0 0,1 6,2H14M18,20V9H13V4H6V20H18M10.92,12.31C10.68,11.54 10.15,9.08 11.55,9.04C12.95,9 12.03,12.16 12.03,12.16C12.42,13.65 14.05,14.72 14.05,14.72C14.55,14.57 17.4,14.24 17,15.72C16.57,17.2 13.5,15.81 13.5,15.81C11.55,15.95 10.09,16.47 10.09,16.47C8.96,18.58 7.64,19.5 7.1,18.61C6.43,17.5 9.23,16.07 9.23,16.07C10.68,13.72 10.9,12.35 10.92,12.31M11.57,13.15C11.17,14.45 10.37,15.84 10.37,15.84C11.22,15.5 13.08,15.11 13.08,15.11C11.94,14.11 11.59,13.16 11.57,13.15M14.71,15.32C14.71,15.32 16.46,15.97 16.5,15.71C16.57,15.44 15.17,15.2 14.71,15.32M9.05,16.81C8.28,17.11 7.54,18.39 7.72,18.39C7.9,18.4 8.63,17.79 9.05,16.81M11.57,11.26C11.57,11.21 12,9.58 11.57,9.53C11.27,9.5 11.56,11.22 11.57,11.26Z" />
</svg>
